<svg xmlns="http://www.w3.org/2000/svg" width="96.112" height="42.063" viewBox="0 0 96.112 42.063">
  <g id="Group_2" data-name="Group 2" transform="translate(-78 -109)">
    <path id="Path_1" data-name="Path 1" d="M137.412,7.248h7.077a3.666,3.666,0,0,0-3.539-2.74,3.732,3.732,0,0,0-3.539,2.74M149.169,34.7H136.442a12.158,12.158,0,0,1-8.675-3.424,13.41,13.41,0,0,1-4.166-10.33,13.368,13.368,0,0,1,4.166-10.273,12.555,12.555,0,0,1,4.965-2.911,8.226,8.226,0,0,1,16.38-.514h.057v6.735H136.5a5.638,5.638,0,0,0-4.109,1.6,6.884,6.884,0,0,0-2.055,5.365,6.723,6.723,0,0,0,2.055,5.365,5.465,5.465,0,0,0,4.109,1.655h12.67Z" transform="translate(24.943 109)" fill="#565657"/>
    <path id="Path_2" data-name="Path 2" d="M83.082,16.235a8.072,8.072,0,0,0-5.707,13.812,7.856,7.856,0,0,0,5.707,2.4,7.983,7.983,0,0,0,5.764-2.4,7.84,7.84,0,0,0,2.34-5.707,7.971,7.971,0,0,0-2.34-5.764,8.163,8.163,0,0,0-5.764-2.34m0,29.907A3.069,3.069,0,0,1,80,43.059V38.836a14.646,14.646,0,0,1-7.363-4,14.39,14.39,0,0,1-4.338-10.5,14.449,14.449,0,0,1,4.338-10.445A14.187,14.187,0,0,1,83.082,9.5a14.01,14.01,0,0,1,10.5,4.395,14.355,14.355,0,0,1,4.338,10.445,14.484,14.484,0,0,1-4.338,10.5,13.832,13.832,0,0,1-7.363,4v4.223a3.156,3.156,0,0,1-3.139,3.082" transform="translate(48.682 104.922)" fill="#565657"/>
    <path id="Path_3" data-name="Path 3" d="M7.7,25.267a4.218,4.218,0,0,0-2.911,4.052A4.165,4.165,0,0,0,7.7,33.371ZM36.756,38.736H29.621v-14.5A6.907,6.907,0,0,0,27.909,19.5c-1.313-1.6-3.139-2.34-5.707-2.34a6.911,6.911,0,0,0-7.363,7.077v14.5H7.7C3.31,38.222,0,34.113,0,29.319,0,24.3,3.653,20.13,8.276,19.9a14.3,14.3,0,0,1,3.082-5.707A13.477,13.477,0,0,1,22.2,9.4,13.63,13.63,0,0,1,33.16,14.194a14.665,14.665,0,0,1,3.6,9.931Z" transform="translate(78 104.965)" fill="#565657"/>
  </g>
</svg>
